<svg width="12" height="13" viewBox="0 0 12 13" fill="none" xmlns="http://www.w3.org/2000/svg">
<path fill-rule="evenodd" clip-rule="evenodd" d="M11.4608 0.766857C11.6026 0.908667 11.6506 1.11917 11.5844 1.30846L7.93002 11.7495C7.8593 11.9515 7.67243 12.0899 7.45855 12.0987C7.24468 12.1074 7.04715 11.9847 6.96021 11.7891L4.95355 7.27409L0.438569 5.26743C0.242967 5.18049 0.120251 4.98296 0.128977 4.76909C0.137702 4.55521 0.2761 4.36834 0.478135 4.29763L10.9192 0.643261C11.1085 0.57701 11.319 0.625048 11.4608 0.766857ZM5.97174 6.99419L7.37953 10.1617L9.84316 3.12277L5.97174 6.99419ZM9.10487 2.38448L2.06592 4.84811L5.23345 6.2559L9.10487 2.38448Z" fill="white"/>
</svg>
